<?xml version="1.0" encoding="utf-8"?>
<!-- Generator: Adobe Illustrator 26.0.0, SVG Export Plug-In . SVG Version: 6.00 Build 0)  -->
<svg version="1.1" id="Layer_1" xmlns="http://www.w3.org/2000/svg" xmlns:xlink="http://www.w3.org/1999/xlink" x="0px" y="0px"
	 viewBox="0 0 472.4 326.2" style="enable-background:new 0 0 472.4 326.2;" xml:space="preserve">
<g>
	<path d="M95.6,241.6h38.1v84.6h23.8V77.6L78.7,0L0,77.6v248.6h95.6V241.6z M95.6,96.7h38.1v37.9H95.6V96.7z M95.6,169.2h38.1v37.9
		H95.6V169.2z M61.9,279.5H23.8v-37.9h38.1V279.5z M61.9,207.1H23.8v-37.9h38.1V207.1z M61.9,134.6H23.8V96.7h38.1V134.6z"/>
	<path d="M253.1,241.6h38.1v84.6H315V77.6L236.2,0l-78.7,77.6v248.6h95.6V241.6z M253.1,96.7h38.1v37.9h-38.1V96.7z M253.1,169.2
		h38.1v37.9h-38.1V169.2z M219.3,279.5h-38.1v-37.9h38.1V279.5z M219.3,207.1h-38.1v-37.9h38.1V207.1z M219.3,134.6h-38.1V96.7h38.1
		V134.6z"/>
	<path d="M393.7,0L315,77.6v248.6h95.6v-84.6h38.1v84.6h23.7V77.6L393.7,0z M376.8,279.5h-38.1v-37.9h38.1V279.5z M376.8,207.1
		h-38.1v-37.9h38.1V207.1z M376.8,134.6h-38.1V96.7h38.1V134.6z M448.6,207.1h-38.1v-37.9h38.1V207.1z M448.6,134.6h-38.1V96.7h38.1
		V134.6z"/>
</g>
</svg>
